<?xml version="1.0" encoding="UTF-8"?>
<svg version="1.1" xmlns="http://www.w3.org/2000/svg" width="1024" height="1024">
<path d="M0 0 C337.92 0 675.84 0 1024 0 C1024 337.92 1024 675.84 1024 1024 C686.08 1024 348.16 1024 0 1024 C0 686.08 0 348.16 0 0 Z " fill="#FEFEFE" transform="translate(0,0)"/>
<path d="M0 0 C2.01478929 1.08165687 4.04895845 2.11839444 6.08935547 3.15087891 C38.38787083 19.62526504 68.54203857 44.37801772 90.87451172 73.00634766 C91.66341797 73.98990234 92.45232422 74.97345703 93.26513672 75.98681641 C109.73212562 96.69757242 125.98589767 120.81386047 126.12451172 148.06884766 C126.15544922 149.54901367 126.15544922 149.54901367 126.18701172 151.05908203 C126.22421327 158.15992757 125.08857852 164.27114819 122.87451172 171.00634766 C122.53291016 172.05306641 122.19130859 173.09978516 121.83935547 174.17822266 C112.47969466 197.66634485 94.00145654 216.17453304 70.890625 226.17675781 C45.52668978 236.61350422 16.86923039 231.40647158 -7.73071289 221.36938477 C-21.56895171 215.40620985 -34.46078134 207.53118422 -46.12548828 198.00634766 C-46.925271 197.35666016 -46.925271 197.35666016 -47.74121094 196.69384766 C-72.0013685 176.89767156 -90.10312071 152.10069625 -101.68798828 123.00634766 C-102.02773682 122.16072266 -102.36748535 121.31509766 -102.7175293 120.44384766 C-110.19821689 101.05429998 -115.08403654 80.79760573 -119.93798828 60.63134766 C-120.51487702 58.25880945 -121.09234883 55.88641294 -121.67041016 53.51416016 C-123.89557122 44.36013076 -126.11102099 35.20938278 -128.12548828 26.00634766 C-128.30230637 26.74089676 -128.47912445 27.47544586 -128.66130066 28.23225403 C-130.35010596 35.24641974 -132.0408725 42.2601087 -133.73369884 49.27330494 C-134.60336765 52.87653491 -135.4723471 56.47992786 -136.33959961 60.08374023 C-147.53700281 106.60598773 -147.53700281 106.60598773 -151.68798828 117.25634766 C-152.01822998 118.1093042 -152.34847168 118.96226074 -152.6887207 119.84106445 C-161.23719118 141.20546077 -173.08485006 160.62485877 -188.12548828 178.00634766 C-188.87701172 178.88033203 -189.62853516 179.75431641 -190.40283203 180.65478516 C-226.59339578 221.85635003 -284.9292582 238.71892394 -337.12548828 247.00634766 C-337.12548828 247.33634766 -337.12548828 247.66634766 -337.12548828 248.00634766 C-336.4687915 248.1263916 -335.81209473 248.24643555 -335.13549805 248.37011719 C-294.96322953 255.76779955 -253.95620926 264.82889523 -220.12548828 289.00634766 C-219.12001953 289.71017578 -218.11455078 290.41400391 -217.07861328 291.13916016 C-209.7256451 296.45387032 -203.08062752 302.39280149 -196.53857422 308.65625 C-195.34077493 309.80065741 -194.12912275 310.9305383 -192.91455078 312.05712891 C-155.8280794 347.40280673 -144.42753538 398.17722773 -133.00048828 446.06884766 C-132.80213379 446.89725159 -132.6037793 447.72565552 -132.39941406 448.5791626 C-131.84144828 450.91947359 -131.29055935 453.26131445 -130.74267578 455.60400391 C-130.57758514 456.29707138 -130.41249451 456.99013885 -130.24240112 457.70420837 C-129.49578042 460.93852547 -129.12548828 463.65766694 -129.12548828 467.00634766 C-128.46548828 467.00634766 -127.80548828 467.00634766 -127.12548828 467.00634766 C-127.08710846 466.4285405 -127.04872864 465.85073334 -127.00918579 465.25541687 C-126.43096023 458.16145153 -124.95767039 451.47774392 -123.21142578 444.58837891 C-122.91869781 443.41409836 -122.62596985 442.23981781 -122.32437134 441.029953 C-121.7040524 438.54897512 -121.08023718 436.06886909 -120.453125 433.58959961 C-119.51526525 429.87733827 -118.59099523 426.16189535 -117.66845703 422.44580078 C-114.813468 411.02684487 -111.84094777 399.65837601 -108.43798828 388.38916016 C-108.16932953 387.49489822 -107.90067078 386.60063629 -107.62387085 385.67927551 C-101.2605915 365.08445518 -91.61939817 345.82655352 -78.12548828 329.00634766 C-77.42939453 328.11818359 -76.73330078 327.23001953 -76.01611328 326.31494141 C-71.73159447 320.94365597 -67.21310436 315.81076326 -62.56298828 310.75634766 C-62.04510742 310.18996582 -61.52722656 309.62358398 -60.99365234 309.04003906 C-37.71050413 284.04382265 -2.66660727 261.1370099 32.38232422 259.67041016 C57.00132174 259.27161664 75.72355401 265.40403602 94.87451172 281.00634766 C95.74076172 281.68052734 96.60701172 282.35470703 97.49951172 283.04931641 C110.69185052 293.91997716 122.70366419 312.76417774 125.49951172 329.81884766 C128.00580172 358.00278807 118.44828048 379.92293652 102.87451172 403.00634766 C102.46587891 403.61317383 102.05724609 404.22 101.63623047 404.84521484 C95.6015619 413.72000917 88.92776007 421.92677524 81.87451172 430.00634766 C81.24802734 430.73337891 80.62154297 431.46041016 79.97607422 432.20947266 C78.2907963 434.15584997 76.58635655 436.08330118 74.87451172 438.00634766 C74.09333984 438.89193359 73.31216797 439.77751953 72.50732422 440.68994141 C68.21559188 445.49694252 63.91943457 450.06361247 58.98388672 454.20947266 C56.48161789 456.34103499 54.09324155 458.57952394 51.68701172 460.81884766 C31.68251467 479.00975019 8.27244919 493.50567728 -16.12548828 505.00634766 C-17.07343262 505.4563916 -17.07343262 505.4563916 -18.04052734 505.91552734 C-45.37456473 518.76294522 -75.16163691 525.96089021 -105.12548828 529.00634766 C-105.90819092 529.09916016 -106.69089355 529.19197266 -107.49731445 529.28759766 C-137.12019963 532.66033644 -167.29491669 528.89497459 -196.12548828 522.00634766 C-196.90617676 521.82378418 -197.68686523 521.6412207 -198.49121094 521.453125 C-240.46474826 511.43828893 -280.02609381 489.61917375 -312.12548828 461.00634766 C-312.62741699 460.56081543 -313.1293457 460.1152832 -313.64648438 459.65625 C-325.00946676 449.52544216 -335.76062027 439.04035557 -345.12548828 427.00634766 C-346.13324973 425.73937996 -347.14106585 424.47245576 -348.14892578 423.20556641 C-376.27140624 387.51750436 -394.0466858 346.38124283 -403.12548828 302.00634766 C-403.33866699 300.97413086 -403.5518457 299.94191406 -403.77148438 298.87841797 C-407.10241004 281.8619048 -407.51455093 264.98100834 -407.56298828 247.69384766 C-407.56925232 246.64955597 -407.57551636 245.60526428 -407.58197021 244.52932739 C-407.65642023 224.89438941 -406.13840602 205.32649621 -401.50048828 186.19384766 C-401.24960449 185.13746094 -400.9987207 184.08107422 -400.74023438 182.99267578 C-396.07429799 164.06150943 -389.74516732 145.50624094 -381.12548828 128.00634766 C-380.69929199 127.13091309 -380.2730957 126.25547852 -379.83398438 125.35351562 C-370.29088036 105.9138593 -358.82813894 87.78775843 -345.12548828 71.00634766 C-344.68591797 70.46526367 -344.24634766 69.92417969 -343.79345703 69.36669922 C-332.57567386 55.64466445 -320.19954167 42.81211579 -306.12548828 32.00634766 C-305.12388672 31.21099609 -304.12228516 30.41564453 -303.09033203 29.59619141 C-268.10316395 1.94616949 -226.93535978 -16.72533497 -183.12548828 -24.99365234 C-182.35865723 -25.14382812 -181.59182617 -25.29400391 -180.80175781 -25.44873047 C-121.53218291 -36.84034021 -53.2970049 -28.92854976 0 0 Z " fill="#000000" transform="translate(652.12548828125,258.99365234375)"/>
</svg>
